<?xml version="1.0" encoding="utf-8"?>
<!-- Generator: Adobe Illustrator 18.0.0, SVG Export Plug-In . SVG Version: 6.00 Build 0)  -->
<!DOCTYPE svg PUBLIC "-//W3C//DTD SVG 1.1//EN" "http://www.w3.org/Graphics/SVG/1.1/DTD/svg11.dtd">
<svg version="1.1" id="Warstwa_1" xmlns="http://www.w3.org/2000/svg" xmlns:xlink="http://www.w3.org/1999/xlink" x="0px" y="0px"
	 viewBox="0 0 2377.4 2172.5" enable-background="new 0 0 2377.4 2172.5" xml:space="preserve">
<g>
	<g>
		<polygon fill="#53FF0F" points="1728.7,561.2 648.7,820.5 648.7,518.9 1728.7,259.6 		"/>
		<polygon fill="#43CC0C" points="1728.7,1079.8 648.7,1339.2 648.7,1037.6 1728.7,778.3 		"/>
		<polygon fill="#2A7F08" points="648.7,820.5 1728.7,1079.8 1728.7,778.3 648.7,518.9 		"/>
	</g>
	<g>
		<path d="M444.2,1778.1c0-13.6-5-24.5-15-32.6c-10-8.1-27.3-15.6-51.9-22.4c-24.7-6.7-42.8-14.2-54.3-22.7s-17.2-20.9-17.2-37.2
			c0-16.2,6.8-29.1,20.3-38.8c13.5-9.6,30.8-14.5,51.7-14.5c21.2,0,38.5,5.9,51.9,17.7c13.4,11.8,19.9,27,19.5,45.6l-0.3,0.9h-6.9
			c0-16.2-6-29.6-17.9-40.2c-11.9-10.6-27.4-15.9-46.4-15.9c-19.7,0-35.2,4.4-46.7,13.2c-11.5,8.8-17.2,19.4-17.2,31.7
			c0,12.3,4.7,22.6,14.2,30.7c9.5,8.1,26.7,15.4,51.5,21.8c24,6.4,42.2,14.1,54.5,23.3c12.3,9.2,18.4,22.2,18.4,39.1
			c0,17.2-7,30.7-21,40.6c-14,9.9-31.5,14.8-52.6,14.8c-21.8,0-40.5-5.1-56.2-15.3c-15.7-10.2-23.3-26.2-22.8-48.1l0.3-0.9h6.7
			c0,19.7,7.3,34,21.8,42.8c14.5,8.9,31.2,13.3,50.2,13.3c19.1,0,34.8-4.4,47-13.1C438,1803.4,444.2,1792,444.2,1778.1z"/>
		<path d="M615.3,1752.5c0,24.8-5.4,44.5-16.1,59c-10.7,14.5-25.5,21.8-44.4,21.8c-12.6,0-23.6-2.5-33-7.6s-16.7-11.9-22-20.6v87h-8
			v-223.3h6.3l1.6,28.9c5.4-9.9,12.7-17.7,21.9-23.4c9.2-5.7,20.2-8.5,32.9-8.5c19,0,33.9,7.5,44.6,22.6
			c10.8,15.1,16.2,35.3,16.2,60.9V1752.5z M607.1,1749.4c0-22.4-4.5-40.5-13.5-54.5c-9-14-22-20.9-39-20.9
			c-15.6,0-27.7,3.9-36.4,11.8c-8.6,7.9-14.8,17.5-18.5,28.9v75.4c4,10.7,10.6,19.3,20,25.6c9.3,6.4,21.1,9.5,35.2,9.5
			c17,0,29.9-6.6,38.8-19.7c8.9-13.1,13.3-30.8,13.3-53.1V1749.4z"/>
		<path d="M730.2,1674.7l-10.4-0.9c-14.4,0-26.1,4.6-35.1,13.9c-9,9.3-14.8,21.5-17.5,36.7v105.7h-8v-161.3h6.6l1.5,28v5.5
			c4.5-11.5,11.1-20.5,20-26.9c8.8-6.4,19.7-9.6,32.6-9.6c2.3,0,4.4,0.2,6.3,0.5c1.9,0.3,3.6,0.7,5,1.1L730.2,1674.7z"/>
		<path d="M770.4,1618.2h-8v-20.6h8V1618.2z M770.4,1830.1h-8v-161.3h8V1830.1z"/>
		<path d="M830.2,1668.9l1,33.2c4.9-11.5,12-20.4,21.3-26.8c9.3-6.3,20.9-9.5,34.6-9.5c17.6,0,30.8,5.5,39.6,16.6
			c8.8,11.1,13.2,28.6,13.2,52.7v94.9h-8v-95.2c0-22.4-4-38.1-12-47.2c-8-9.1-18.9-13.7-32.6-13.7c-17.4,0-30.5,5.2-39.3,15.6
			c-8.8,10.4-14.4,23.7-16.5,39.9v100.8h-8v-161.3H830.2z"/>
		<path d="M982.8,1749.4c0-25.5,5.4-45.8,16.1-60.9c10.7-15.1,25.6-22.6,44.7-22.6c12.5,0,23.4,2.8,32.6,8.5
			c9.2,5.7,16.6,13.5,22.1,23.4l1.2-28.9h6.9V1831c0,20.5-5.4,36.3-16.2,47.5c-10.8,11.2-25.7,16.8-44.8,16.8
			c-7.8,0-16-0.8-24.5-2.5c-8.5-1.6-15.9-3.9-22.3-6.8l2.4-8c7.3,3.2,14.3,5.5,21,7.1c6.8,1.5,14.5,2.3,23.1,2.3
			c17.4,0,30.6-4.8,39.6-14.5c9-9.7,13.5-23.6,13.5-41.8v-25.6c-5.5,8.5-12.9,15.3-22.2,20.3c-9.3,5-20.2,7.5-32.6,7.5
			c-19,0-33.8-7.3-44.5-21.8c-10.7-14.5-16-34.2-16-59V1749.4z M991,1752.5c0,22.3,4.4,39.9,13.3,53.1c8.8,13.1,21.8,19.7,38.9,19.7
			c14,0,25.6-3.2,34.9-9.5c9.2-6.3,15.9-14.7,20.1-25.3v-76.3c-4-11.4-10.3-21-18.9-28.7c-8.6-7.7-20.5-11.6-35.8-11.6
			c-17.1,0-30.1,7-39,20.9c-8.9,14-13.4,32.1-13.4,54.5V1752.5z"/>
		<path d="M1242.9,1822.1h111.3v8h-119.5v-217h8.2V1822.1z"/>
		<path d="M1489.3,1800.3c-5.6,9.7-13.9,17.7-24.9,23.8s-24.4,9.2-40.1,9.2c-15,0-26.8-4.1-35.3-12.3c-8.5-8.2-12.8-19.3-12.8-33.2
			c0-13.5,6.4-24.8,19.2-34c12.8-9.1,28.7-13.7,47.9-13.7h46.1v-23.5c0-13.4-4.3-23.9-12.9-31.4c-8.6-7.5-20.7-11.3-36.3-11.3
			c-14.6,0-26.4,3.5-35.2,10.6c-8.9,7.1-13.3,16.1-13.3,27.3l-6.7-0.3l-0.3-0.7c-0.6-12.5,4.3-23.1,14.6-31.8c10.3-8.7,24-13,41-13
			c17.3,0,31.1,4.4,41.6,13.1c10.4,8.7,15.6,21.4,15.6,37.9v80.8c0,5.7,0.3,11.2,1,16.5c0.6,5.4,1.7,10.7,3.2,15.9h-8.9
			c-1.3-7.1-2.2-12.3-2.6-15.9c-0.4-3.5-0.7-7.3-0.7-11.4V1800.3z M1424.3,1825.4c16,0,29.5-3.5,40.6-10.6
			c11.1-7.1,19.2-17.1,24.4-30.3v-36.2h-45.6c-16.7,0-30.8,3.9-42.3,11.6c-11.5,7.7-17.2,17.2-17.2,28.5c0,10.8,3.7,19.7,11,26.6
			C1402.4,1821.9,1412.1,1825.4,1424.3,1825.4z"/>
		<path d="M1589.6,1800.9l6,16.1h0.9l0.9-2.4l55.7-145.8h8.9l-71.7,188.1c-4.4,11.3-9.5,20.5-15.3,27.6
			c-5.8,7.1-15.1,10.7-27.8,10.7c-1.9,0-4-0.2-6.3-0.5c-2.3-0.3-4-0.7-5.1-1.1l1.3-7.6c1.1,0.3,2.7,0.6,4.9,0.9
			c2.2,0.3,3.9,0.4,5.1,0.4c9.1,0,16.3-2.7,21.4-8c5.1-5.4,9.7-13.3,13.6-23.8l9.7-26.2l-64.2-160.4h8.8L1589.6,1800.9z"/>
		<path d="M1677.8,1746.4c0-23.6,6.5-43,19.6-58c13.1-15,30-22.5,50.9-22.5c21,0,38,7.5,51,22.5c13.1,15,19.6,34.3,19.6,58v6.3
			c0,23.7-6.5,43.1-19.6,58.1c-13.1,15-30,22.5-50.7,22.5c-21,0-38-7.5-51.1-22.5c-13.1-15-19.7-34.4-19.7-58.1V1746.4z
			 M1685.8,1752.6c0,20.3,5.7,37.4,17,51.5c11.3,14.1,26.6,21.1,45.8,21.1c18.9,0,34-7.1,45.3-21.2c11.3-14.1,17-31.2,17-51.4v-6.3
			c0-19.8-5.7-36.8-17.1-51c-11.4-14.3-26.6-21.4-45.5-21.4c-19,0-34.1,7.1-45.5,21.4c-11.3,14.3-17,31.3-17,51V1752.6z"/>
		<path d="M1965.9,1801.2c-5.1,10.2-12.3,18.1-21.7,23.7s-20.8,8.3-34.2,8.3c-16.6,0-29.6-5.9-39-17.7s-14.1-30-14.1-54.8v-92h8
			v92.3c0,21.9,4,38,12.1,48.4c8,10.4,18.9,15.6,32.6,15.6c16.8,0,29.7-4.1,38.7-12.4c9-8.2,14.7-19.2,17.2-32.8v-111.2h8.2v161.3
			h-6.7L1965.9,1801.2z"/>
		<path d="M2041.3,1625.4v43.5h39.6v8.2h-39.6v111.5c0,13.2,2.2,22.6,6.7,28.2c4.5,5.6,10.4,8.4,17.7,8.4c2.7,0,5.1-0.1,7.2-0.3
			c2.1-0.2,5-0.5,8.6-1l1.5,7.3c-2.5,0.8-5.1,1.3-7.8,1.6c-2.7,0.3-5.7,0.4-9.1,0.4c-10.8,0-19.1-3.5-24.7-10.6
			c-5.6-7.1-8.4-18.4-8.4-34.1v-111.5h-29.8v-8.2h29.8v-43.5H2041.3z"/>
	</g>
</g>
</svg>
